<svg xmlns="http://www.w3.org/2000/svg" xmlns:xlink="http://www.w3.org/1999/xlink"><symbol id="icon-bars" viewBox="0 0 37 13">
<rect width="37" height="1" fill="white"/>
<rect y="12" width="37" height="1" fill="white"/>
</symbol><symbol id="icon-circuit" viewBox="0 0 52 52">
<path d="M32.0668 13.8665C33.1952 13.8665 34.1485 14.5936 34.5073 15.5998H43.4929C43.8517 14.5936 44.805 13.8665 45.9334 13.8665C47.3669 13.8665 48.5334 15.033 48.5334 16.4664C48.5334 17.8999 47.3669 19.0664 45.9334 19.0664C44.805 19.0664 43.8517 18.3392 43.4929 17.3331H34.5064C34.1476 18.3392 33.1943 19.0664 32.0659 19.0664C30.6324 19.0664 29.4659 17.8999 29.4659 16.4664C29.4659 15.033 30.6333 13.8665 32.0668 13.8665ZM45.9334 17.3331C46.411 17.3331 46.8001 16.9448 46.8001 16.4664C46.8001 15.988 46.411 15.5998 45.9334 15.5998C45.4559 15.5998 45.0668 15.988 45.0668 16.4664C45.0668 16.9448 45.4559 17.3331 45.9334 17.3331ZM32.0668 17.3331C32.5443 17.3331 32.9334 16.9448 32.9334 16.4664C32.9334 15.988 32.5443 15.5998 32.0668 15.5998C31.5892 15.5998 31.2001 15.988 31.2001 16.4664C31.2001 16.9448 31.5892 17.3331 32.0668 17.3331Z" fill="#00B2FF"/>
<path d="M25.1333 19.2259V13.8665C25.1333 13.636 25.2243 13.4158 25.3872 13.2538L28.8539 9.78716C29.0159 9.62423 29.2369 9.53323 29.4666 9.53323H32.2261C32.5849 8.52705 33.5382 7.79993 34.6666 7.79993C36.1001 7.79993 37.2666 8.96644 37.2666 10.3999C37.2666 11.8333 36.1001 12.9998 34.6666 12.9998C33.5382 12.9998 32.5849 12.2727 32.2261 11.2665H29.8254L26.8666 14.2253V19.2259C27.8728 19.5847 28.5999 20.538 28.5999 21.6664C28.5999 23.0998 27.4334 24.2663 25.9999 24.2663C24.5665 24.2663 23.3999 23.0998 23.3999 21.6664C23.3999 20.538 24.1271 19.5847 25.1333 19.2259ZM34.6666 11.2665C35.1441 11.2665 35.5333 10.8783 35.5333 10.3999C35.5333 9.92149 35.1441 9.53323 34.6666 9.53323C34.1891 9.53323 33.7999 9.92149 33.7999 10.3999C33.7999 10.8783 34.1891 11.2665 34.6666 11.2665ZM25.9999 22.533C26.4775 22.533 26.8666 22.1448 26.8666 21.6664C26.8666 21.188 26.4775 20.7997 25.9999 20.7997C25.5224 20.7997 25.1333 21.188 25.1333 21.6664C25.1333 22.1448 25.5224 22.533 25.9999 22.533Z" fill="#00B2FF"/>
<path d="M9.53333 22.533C9.93373 22.533 10.3081 22.6309 10.647 22.7938L12.1333 21.3075V12.9998C12.1333 12.7693 12.2243 12.5491 12.3873 12.3871L21.0609 3.7136C20.8979 3.37474 20.8 3.00035 20.8 2.59996C20.8 1.16651 21.9665 0 23.4 0C24.8335 0 26 1.16651 26 2.59996C26 4.0334 24.8335 5.19991 23.4 5.19991C22.9996 5.19991 22.6252 5.10198 22.2863 4.93905L13.8667 13.3586V21.6663C13.8667 21.8968 13.7757 22.117 13.6127 22.279L11.8725 24.0193C12.0354 24.3581 12.1333 24.7325 12.1333 25.1329C12.1333 26.5664 10.9668 27.7329 9.53333 27.7329C8.09987 27.7329 6.93333 26.5664 6.93333 25.1329C6.93333 23.6995 8.09987 22.533 9.53333 22.533ZM23.4 3.46661C23.8775 3.46661 24.2667 3.07835 24.2667 2.59996C24.2667 2.12156 23.8775 1.7333 23.4 1.7333C22.9225 1.7333 22.5333 2.12156 22.5333 2.59996C22.5333 3.07835 22.9225 3.46661 23.4 3.46661ZM9.53333 25.9996C10.0109 25.9996 10.4 25.6113 10.4 25.1329C10.4 24.6545 10.0109 24.2663 9.53333 24.2663C9.0558 24.2663 8.66667 24.6545 8.66667 25.1329C8.66667 25.6113 9.0558 25.9996 9.53333 25.9996Z" fill="#00B2FF"/>
<path d="M1.73328 12.2926V8.66652C1.73328 8.43599 1.82428 8.21586 1.98722 8.0538L8.05388 1.98723C8.21595 1.8243 8.43695 1.7333 8.66662 1.7333H13.1594C13.5182 0.727121 14.4716 0 15.6 0C17.0334 0 18.2 1.16651 18.2 2.59996C18.2 4.0334 17.0334 5.19991 15.6 5.19991C14.4716 5.19991 13.5182 4.47279 13.1594 3.46661H9.02542L3.46662 9.02532V12.2926C4.47282 12.6514 5.19995 13.6047 5.19995 14.7331C5.19995 16.1665 4.03342 17.333 2.59995 17.333C1.16648 17.333 -4.8995e-05 16.1665 -4.8995e-05 14.7331C-4.8995e-05 13.6047 0.727084 12.6514 1.73328 12.2926ZM15.6 3.46661C16.0775 3.46661 16.4666 3.07835 16.4666 2.59996C16.4666 2.12156 16.0775 1.7333 15.6 1.7333C15.1224 1.7333 14.7333 2.12156 14.7333 2.59996C14.7333 3.07835 15.1224 3.46661 15.6 3.46661ZM2.59995 15.5997C3.07748 15.5997 3.46662 15.2115 3.46662 14.7331C3.46662 14.2547 3.07748 13.8664 2.59995 13.8664C2.12242 13.8664 1.73328 14.2547 1.73328 14.7331C1.73328 15.2115 2.12242 15.5997 2.59995 15.5997Z" fill="#00B2FF"/>
<path d="M13.8658 46.9595V34.5066C12.8604 34.1478 12.1333 33.1945 12.1333 32.0661C12.1333 30.6327 13.2998 29.4661 14.7333 29.4661C15.8617 29.4661 16.815 30.1933 17.1738 31.1995H26.1594C26.5182 30.1933 27.4716 29.4661 28.6 29.4661C29.7284 29.4661 30.6817 30.1933 31.0405 31.1995H36.0412L39.2608 27.9798C39.0979 27.641 39 27.2666 39 26.8662C39 25.4327 40.1665 24.2662 41.6 24.2662C43.0334 24.2662 44.2 25.4327 44.2 26.8662C44.2 28.2996 43.0334 29.4661 41.6 29.4661C41.1996 29.4661 40.8252 29.3682 40.4863 29.2053L37.0127 32.6788C36.8506 32.8418 36.6296 32.9328 36.4 32.9328H31.0405C30.6817 33.9389 29.7284 34.6661 28.6 34.6661C27.4716 34.6661 26.5182 33.9389 26.1594 32.9328H17.173C16.9112 33.6668 16.3332 34.2449 15.5991 34.5066V46.9595C16.6053 47.3183 17.3324 48.2716 17.3324 49.4C17.3324 50.8335 16.1659 52 14.7324 52C13.299 52 12.1324 50.8335 12.1324 49.4C12.1324 48.2716 12.8596 47.3183 13.8658 46.9595ZM41.6 27.7328C42.0775 27.7328 42.4666 27.3446 42.4666 26.8662C42.4666 26.3878 42.0775 25.9995 41.6 25.9995C41.1224 25.9995 40.7333 26.3878 40.7333 26.8662C40.7333 27.3446 41.1224 27.7328 41.6 27.7328ZM28.6 32.9328C29.0775 32.9328 29.4666 32.5445 29.4666 32.0661C29.4666 31.5877 29.0775 31.1995 28.6 31.1995C28.1224 31.1995 27.7333 31.5877 27.7333 32.0661C27.7333 32.5445 28.1224 32.9328 28.6 32.9328ZM14.7333 50.2658C15.2108 50.2658 15.6 49.8775 15.6 49.3991C15.6 48.9208 15.2108 48.5325 14.7333 48.5325C14.2558 48.5325 13.8666 48.9208 13.8666 49.3991C13.8666 49.8775 14.2558 50.2658 14.7333 50.2658ZM14.7333 32.9328C15.2108 32.9328 15.6 32.5445 15.6 32.0661C15.6 31.5877 15.2108 31.1995 14.7333 31.1995C14.2558 31.1995 13.8666 31.5877 13.8666 32.0661C13.8666 32.5445 14.2558 32.9328 14.7333 32.9328Z" fill="#00B2FF"/>
<path d="M18.2 17.4925V14.7331C18.2 14.5026 18.291 14.2824 18.4539 14.1204L28.8609 3.7136C28.6979 3.37474 28.6 3.00035 28.6 2.59996C28.6 1.16651 29.7665 0 31.2 0C32.3284 0 33.2817 0.727121 33.6405 1.7333H37.2667C37.7451 1.7333 38.1333 2.1207 38.1333 2.59996V4.84112L41.353 8.06073C41.6919 7.8978 42.0663 7.79987 42.4667 7.79987C43.9001 7.79987 45.0667 8.96638 45.0667 10.3998C45.0667 11.8333 43.9001 12.9998 42.4667 12.9998C41.0332 12.9998 39.8667 11.8333 39.8667 10.3998C39.8667 9.99943 39.9646 9.62504 40.1275 9.28618L36.6539 5.81264C36.491 5.65057 36.4 5.43044 36.4 5.19991V3.46661H33.6405C33.2817 4.47279 32.3284 5.19991 31.2 5.19991C30.7996 5.19991 30.4252 5.10198 30.0863 4.93905L19.9333 15.0919V17.4925C20.9395 17.8513 21.6667 18.8046 21.6667 19.933C21.6667 21.3664 20.5001 22.533 19.0667 22.533C17.6332 22.533 16.4667 21.3664 16.4667 19.933C16.4667 18.8046 17.1938 17.8513 18.2 17.4925ZM42.4667 11.2665C42.9442 11.2665 43.3333 10.8782 43.3333 10.3998C43.3333 9.92143 42.9442 9.53317 42.4667 9.53317C41.9891 9.53317 41.6 9.92143 41.6 10.3998C41.6 10.8782 41.9891 11.2665 42.4667 11.2665ZM31.2 3.46661C31.6775 3.46661 32.0667 3.07835 32.0667 2.59996C32.0667 2.12156 31.6775 1.7333 31.2 1.7333C30.7225 1.7333 30.3333 2.12156 30.3333 2.59996C30.3333 3.07835 30.7225 3.46661 31.2 3.46661ZM19.0667 20.7997C19.5442 20.7997 19.9333 20.4114 19.9333 19.933C19.9333 19.4546 19.5442 19.0663 19.0667 19.0663C18.5891 19.0663 18.2 19.4546 18.2 19.933C18.2 20.4114 18.5891 20.7997 19.0667 20.7997Z" fill="#00B2FF"/>
<path d="M20.8 24.2663C21.9284 24.2663 22.8817 24.9934 23.2405 25.9996H33.4412L38.3873 21.0536C38.5493 20.8907 38.7703 20.7997 39 20.7997H48.1745L50.2667 18.7076V11.6253L43.5803 4.93905C43.2415 5.10198 42.8671 5.19991 42.4667 5.19991C41.0332 5.19991 39.8667 4.0334 39.8667 2.59996C39.8667 1.16651 41.0332 0 42.4667 0C43.9001 0 45.0667 1.16651 45.0667 2.59996C45.0667 3.00035 44.9687 3.37474 44.8058 3.7136L51.7461 10.6538C51.909 10.8158 52 11.0359 52 11.2665V19.0663C52 19.2969 51.909 19.517 51.7461 19.6791L49.1461 22.279C48.984 22.442 48.763 22.533 48.5333 22.533H39.3588L34.4127 27.4789C34.2507 27.6419 34.0297 27.7329 33.8 27.7329H23.2405C22.8817 28.7391 21.9284 29.4662 20.8 29.4662C19.3665 29.4662 18.2 28.2997 18.2 26.8662C18.2 25.4328 19.3665 24.2663 20.8 24.2663ZM42.4667 1.7333C41.9891 1.7333 41.6 2.12156 41.6 2.59996C41.6 3.07835 41.9891 3.46661 42.4667 3.46661C42.9442 3.46661 43.3333 3.07835 43.3333 2.59996C43.3333 2.12156 42.9442 1.7333 42.4667 1.7333ZM20.8 27.7329C21.2775 27.7329 21.6667 27.3446 21.6667 26.8662C21.6667 26.3878 21.2775 25.9996 20.8 25.9996C20.3225 25.9996 19.9333 26.3878 19.9333 26.8662C19.9333 27.3446 20.3225 27.7329 20.8 27.7329Z" fill="#00B2FF"/>
<path d="M2.59997 20.7997C3.00037 20.7997 3.37477 20.8976 3.71363 21.0606L6.9333 17.841V12.8404C5.9271 12.4816 5.19997 11.5283 5.19997 10.3999C5.19997 8.96644 6.3665 7.79993 7.79997 7.79993C9.23343 7.79993 10.4 8.96644 10.4 10.3999C10.4 11.5283 9.67283 12.4816 8.66663 12.8404V18.1998C8.66663 18.4303 8.57563 18.6504 8.4127 18.8125L4.9391 22.286C5.10204 22.6249 5.19997 22.9993 5.19997 23.3997C5.19997 24.528 4.47283 25.4814 3.46663 25.8402V26.5075L10.146 33.1868C10.309 33.3488 10.4 33.569 10.4 33.7995V34.8256C11.4062 35.1844 12.1333 36.1377 12.1333 37.2661C12.1333 38.3945 11.4062 39.3478 10.4 39.7066V41.7597C11.4062 42.1185 12.1333 43.0718 12.1333 44.2002C12.1333 45.6336 10.9668 46.8001 9.5333 46.8001C8.09983 46.8001 6.9333 45.6336 6.9333 44.2002C6.9333 43.0718 7.66043 42.1185 8.66663 41.7597V39.7066C7.66043 39.3478 6.9333 38.3945 6.9333 37.2661C6.9333 36.1377 7.66043 35.1844 8.66663 34.8256V34.1583L1.98723 27.479C1.8243 27.3169 1.7333 27.0968 1.7333 26.8663V25.8402C0.727101 25.4814 -3.26633e-05 24.528 -3.26633e-05 23.3997C-3.26633e-05 21.9662 1.1665 20.7997 2.59997 20.7997ZM7.79997 11.2665C8.2775 11.2665 8.66663 10.8783 8.66663 10.3999C8.66663 9.92149 8.2775 9.53323 7.79997 9.53323C7.32243 9.53323 6.9333 9.92149 6.9333 10.3999C6.9333 10.8783 7.32243 11.2665 7.79997 11.2665ZM9.5333 45.066C10.0108 45.066 10.4 44.6777 10.4 44.1993C10.4 43.7209 10.0108 43.3327 9.5333 43.3327C9.05577 43.3327 8.66663 43.7209 8.66663 44.1993C8.66663 44.6777 9.05577 45.066 9.5333 45.066ZM9.5333 38.1328C10.0108 38.1328 10.4 37.7445 10.4 37.2661C10.4 36.7877 10.0108 36.3995 9.5333 36.3995C9.05577 36.3995 8.66663 36.7877 8.66663 37.2661C8.66663 37.7445 9.05577 38.1328 9.5333 38.1328ZM2.59997 24.2663C3.0775 24.2663 3.46663 23.8781 3.46663 23.3997C3.46663 22.9213 3.0775 22.533 2.59997 22.533C2.12243 22.533 1.7333 22.9213 1.7333 23.3997C1.7333 23.8781 2.12243 24.2663 2.59997 24.2663Z" fill="#00B2FF"/>
</symbol><symbol id="icon-detective" viewBox="0 0 31 27">
<path d="M15.7697 8.21716C15.443 8.21716 15.1777 8.48402 15.1777 8.81328C15.1777 9.14231 15.443 9.4094 15.7697 9.4094C16.0964 9.4094 16.3617 9.14231 16.3617 8.81328C16.3617 8.48402 16.0964 8.21716 15.7697 8.21716Z" fill="#00B2FF"/>
<path d="M29.148 11.7939H26.8446C25.6304 8.30245 23.8686 2.18035 20.6771 0.447642C19.0809 -0.417896 17.5721 0.186607 17.0046 1.41471C16.7632 1.93678 16.2811 2.21132 15.7696 2.21132C15.2511 2.21132 14.7729 1.93072 14.5345 1.41517C13.9872 0.228987 12.5144 -0.430936 10.9742 0.321898C7.73154 1.90767 5.91819 8.27614 4.69448 11.7939H2.39113C1.40999 11.7939 0.615234 12.5941 0.615234 13.5823C0.615234 14.5682 1.41184 15.3707 2.39113 15.3707H29.148C30.1291 15.3707 30.9239 14.5703 30.9239 13.5823C30.9239 12.5961 30.1273 11.7939 29.148 11.7939ZM6.77399 9.40947H13.4017C13.7287 9.40947 13.9937 9.14238 13.9937 8.81335C13.9937 8.48409 13.7287 8.21723 13.4017 8.21723H7.18791C8.97236 3.25336 10.6393 1.81103 11.4912 1.39445C12.4206 0.940373 13.1855 1.3204 13.4611 1.91792C13.8954 2.85727 14.7937 3.40356 15.7696 3.40356C16.7477 3.40356 17.6449 2.85518 18.078 1.91792C18.3617 1.3034 19.1306 0.963193 20.1154 1.49714C20.9712 1.96193 22.6331 3.45223 24.351 8.21723H18.1374C17.8105 8.21723 17.5455 8.48409 17.5455 8.81335C17.5455 9.14261 17.8105 9.40947 18.1374 9.40947H24.7654C25.0646 10.2785 25.3754 11.1752 25.5904 11.7939H5.94894C6.1633 11.1769 6.47338 10.2822 6.77399 9.40947ZM29.148 14.1784H2.39113C2.06463 14.1784 1.79917 13.9109 1.79917 13.5823C1.79917 13.253 2.06416 12.9862 2.39113 12.9862H29.148C29.4745 12.9862 29.74 13.2535 29.74 13.5823C29.74 13.9113 29.4747 14.1784 29.148 14.1784Z" fill="#00B2FF"/>
<path d="M14.5859 17.7552H5.11443C4.78746 17.7552 4.52246 18.0221 4.52246 18.3514V20.7358C4.52246 23.6941 6.91252 26.1009 9.85015 26.1009C12.076 26.1009 14.0462 24.7222 14.8298 22.6451C15.425 22.3717 16.1146 22.3717 16.7098 22.6451C17.4935 24.7222 19.4636 26.1007 21.6895 26.1007C24.6271 26.1007 27.0172 23.6941 27.0172 20.7356V18.3511C27.0172 18.0219 26.7522 17.755 26.4252 17.755H16.9537C16.6268 17.755 16.3618 18.0219 16.3618 18.3511V18.9472H15.1778V18.3511C15.1778 18.0221 14.9129 17.7552 14.5859 17.7552ZM9.85015 24.9087C7.5653 24.9087 5.70639 23.0367 5.70639 20.7358V18.9475H13.9939V20.7358C13.9939 23.0428 12.1449 24.9087 9.85015 24.9087ZM17.5457 18.9475H25.8332V20.7358C25.8332 23.0367 23.9743 24.9087 21.6895 24.9087C19.3889 24.9087 17.5457 23.0372 17.5457 20.7358V18.9475ZM16.3618 20.1397V20.7358C16.3618 20.9263 16.3726 21.1161 16.3923 21.3045C15.9809 21.2288 15.5587 21.2288 15.1473 21.3045C15.167 21.1161 15.1778 20.9263 15.1778 20.7358V20.1397H16.3618Z" fill="#00B2FF"/>
<path d="M9.84997 22.5241C8.87068 22.5241 8.07407 21.7216 8.07407 20.7357C8.07407 20.4064 7.80907 20.1396 7.4821 20.1396C7.15513 20.1396 6.89014 20.4064 6.89014 20.7357C6.89014 22.379 8.2179 23.7163 9.84997 23.7163C10.1769 23.7163 10.4419 23.4492 10.4419 23.1202C10.4419 22.7909 10.1769 22.5241 9.84997 22.5241Z" fill="#00B2FF"/>
<path d="M21.6896 23.7163C23.3217 23.7163 24.6495 22.379 24.6495 20.7357C24.6495 20.4064 24.3845 20.1396 24.0575 20.1396C23.7305 20.1396 23.4655 20.4064 23.4655 20.7357C23.4655 21.7216 22.6689 22.5241 21.6896 22.5241C21.3627 22.5241 21.0977 22.7909 21.0977 23.1202C21.0977 23.4492 21.3627 23.7163 21.6896 23.7163Z" fill="#00B2FF"/>
</symbol><symbol id="icon-envelope" viewBox="0 0 19 14">
<path d="M16.6805 0H2.3234C1.0418 0 0 1.0087 0 2.24959V11.7504C0 12.9913 1.0418 14 2.3234 14H16.6766C17.9582 14 19 12.9913 19 11.7504V2.2534C19.0039 1.01251 17.9621 0 16.6805 0ZM17.9425 11.7504C17.9425 12.4241 17.3764 12.9723 16.6805 12.9723H2.3234C1.62756 12.9723 1.06145 12.4241 1.06145 11.7504V2.2534C1.06145 1.57966 1.62756 1.03154 2.3234 1.03154H16.6766C17.3724 1.03154 17.9385 1.57966 17.9385 2.2534V11.7504H17.9425Z" fill="#00B2FF"/>
<path d="M11.9827 6.88195L16.6295 2.84715C16.8457 2.65683 16.8654 2.33328 16.6688 2.12012C16.4723 1.91077 16.1381 1.89174 15.9179 2.08206L9.50992 7.65085L8.25977 6.56982C8.25584 6.56602 8.2519 6.56221 8.2519 6.55841C8.22439 6.53176 8.19687 6.50892 8.16542 6.48608L3.07831 2.07825C2.85816 1.88793 2.524 1.90696 2.32743 2.12012C2.13087 2.33328 2.15052 2.65683 2.37068 2.84715L7.07251 6.91621L2.39033 11.1604C2.17804 11.3545 2.16625 11.678 2.36674 11.8874C2.47289 11.994 2.61442 12.0511 2.75594 12.0511C2.88568 12.0511 3.01541 12.0054 3.11762 11.914L7.87057 7.60898L9.16004 8.72426C9.26225 8.8118 9.38805 8.85367 9.51385 8.85367C9.63965 8.85367 9.76939 8.808 9.86767 8.72045L11.1925 7.57091L15.9179 11.9178C16.0202 12.013 16.1538 12.0587 16.2836 12.0587C16.4251 12.0587 16.5627 12.0054 16.6688 11.8988C16.8693 11.6933 16.8615 11.3659 16.6492 11.1718L11.9827 6.88195Z" fill="#00B2FF"/>
</symbol><symbol id="icon-facebook" viewBox="0 0 27 27">
<path fill-rule="evenodd" clip-rule="evenodd" d="M27 13.5C27 6.04462 20.9562 0 13.5 0C6.04379 0 0 6.04462 0 13.5C0 20.9562 6.04369 27 13.5 27C20.9562 27 27 20.9563 27 13.5ZM16.8836 9.29395H15.1437C14.6754 9.29395 14.3464 9.69053 14.3464 10.185V10.9604H16.8312L16.4288 13.4772H14.3455V20.2238H11.8025V13.4772H10.115V10.9604H11.8025V9.677H11.8075C11.8523 8.21392 12.3602 6.82092 14.8383 6.73315V6.72388H16.8836V9.29395Z" fill="#CDCDCD"/>
</symbol><symbol id="icon-hired" viewBox="0 0 32 33">
<path d="M28.5547 26.192C28.8947 25.7154 29.0958 25.1304 29.0958 24.4985V20.7218C29.0958 20.3747 28.8184 20.0933 28.4763 20.0933H25.7076C24.4276 20.0933 23.3863 21.1497 23.3863 22.4482V24.4985C23.3863 25.13 23.5872 25.7145 23.9268 26.1911C23.5033 26.2608 23.0958 26.3984 22.7158 26.5999C21.8551 25.2969 20.4448 24.3983 18.8243 24.2467C18.818 24.2449 18.8115 24.2435 18.8052 24.242C19.385 23.5851 19.7384 22.7186 19.7384 21.7695V16.6366C19.7384 16.2894 19.461 16.0081 19.1189 16.0081H15.3558C13.7389 16.0081 12.4235 17.3426 12.4235 18.9829V21.7695C12.4235 22.7185 12.7769 23.5851 13.3567 24.2419C13.3503 24.2435 13.3439 24.2449 13.3376 24.2466C11.7168 24.3982 10.3066 25.297 9.44586 26.6002C9.06573 26.3987 8.65821 26.261 8.23489 26.1913C8.57451 25.7147 8.77554 25.1301 8.77554 24.4985V20.7218C8.77554 20.3747 8.49812 20.0933 8.15602 20.0933H5.38726C4.10733 20.0933 3.06603 21.1497 3.06603 22.4482V24.4985C3.06603 25.1305 3.26719 25.7154 3.60719 26.192C1.68958 26.51 0.221191 28.2018 0.221191 30.2357V32.0977C0.221191 32.4448 0.498613 32.7262 0.840713 32.7262H31.3212C31.6633 32.7262 31.9407 32.4448 31.9407 32.0977V30.2357C31.9407 28.2018 30.4723 26.51 28.5547 26.192ZM4.30508 22.4482C4.30508 21.8428 4.79053 21.3503 5.38726 21.3503H7.5365V22.1158C7.5365 22.4911 7.23554 22.7964 6.86562 22.7964H4.30508V22.4482ZM4.30508 24.0534H6.86562C7.10166 24.0534 7.32766 24.0094 7.5365 23.9296V24.4985C7.5365 25.4022 6.81172 26.1376 5.92079 26.1376C5.02985 26.1376 4.30508 25.4022 4.30508 24.4985V24.0534ZM6.32019 27.3946L5.92079 27.7998L5.52138 27.3946H6.32019ZM8.55698 29.5671V31.4692H1.46023V30.2357C1.46023 28.8261 2.47767 27.6534 3.80655 27.4326L5.48272 29.133C5.59895 29.2509 5.75649 29.3171 5.92079 29.3171C6.08509 29.3171 6.24263 29.2509 6.35885 29.133L8.03552 27.432C8.33166 27.4809 8.61645 27.5777 8.88185 27.7194C8.67196 28.2955 8.55698 28.9179 8.55698 29.5671ZM16.081 24.223C14.7475 24.223 13.6626 23.1224 13.6626 21.7695V20.9388H17.3651C17.7756 20.9388 18.1622 20.8324 18.4994 20.6455V21.7695C18.4994 23.1224 17.4145 24.223 16.081 24.223ZM17.1609 25.4799L16.0809 26.5755L15.001 25.4799H17.1609ZM13.6625 18.9829H13.6625C13.6625 18.0357 14.4221 17.2651 15.3558 17.2651H18.4994V18.5311C18.4994 19.1656 17.9905 19.6819 17.365 19.6819H13.6625V18.9829ZM22.3658 31.4692H21.161H11.0009H9.79608V30.2122H13.83C14.1721 30.2122 14.4496 29.9308 14.4496 29.5837C14.4496 29.2365 14.1721 28.9552 13.83 28.9552H9.84137C10.1069 27.1689 11.5163 25.7589 13.2858 25.5176L15.6429 27.9088C15.7639 28.0315 15.9224 28.0929 16.0809 28.0929C16.2395 28.0929 16.398 28.0315 16.519 27.9088L18.876 25.5176C20.8434 25.7858 22.3658 27.4989 22.3658 29.5671V31.4692ZM24.6254 22.4482C24.6254 21.8428 25.1108 21.3503 25.7076 21.3503H27.8568V22.1158C27.8568 22.4911 27.5558 22.7964 27.1859 22.7964H24.6254V22.4482ZM24.6254 24.0534H27.1859C27.422 24.0534 27.648 24.0094 27.8568 23.9296V24.4985C27.8568 25.4022 27.132 26.1376 26.2411 26.1376C25.3502 26.1376 24.6254 25.4022 24.6254 24.4985V24.0534ZM26.6405 27.3946L26.2411 27.7998L25.8417 27.3946H26.6405ZM23.6048 31.4692V29.5671C23.6048 28.9178 23.4899 28.2954 23.2799 27.7193C23.5452 27.5775 23.8299 27.4807 24.1261 27.4319L25.803 29.133C25.9192 29.2509 26.0767 29.3171 26.241 29.3171C26.4053 29.3171 26.5629 29.2509 26.6791 29.133L28.3553 27.4326C29.6841 27.6535 30.7016 28.8261 30.7016 30.2357V31.4692H23.6048Z" fill="#00B2FF"/>
<path d="M19.1336 4.65343C18.8917 4.408 18.4995 4.408 18.2575 4.65343L15.2175 7.73754L13.9033 6.40431C13.6613 6.15882 13.2691 6.15882 13.0271 6.40425C12.7852 6.64967 12.7852 7.04764 13.0271 7.29313L14.7794 9.07078C14.8956 9.18863 15.0532 9.25487 15.2175 9.25487C15.3818 9.25487 15.5393 9.18863 15.6555 9.07078L19.1336 5.54226C19.3756 5.29683 19.3756 4.89886 19.1336 4.65343Z" fill="#00B2FF"/>
<path d="M18.6144 1.09199C18.3019 0.950642 17.9356 1.093 17.7962 1.41001C17.6568 1.72703 17.7972 2.09866 18.1097 2.24001C19.9063 3.05285 21.0671 4.86714 21.0671 6.86212C21.0671 9.65116 18.8305 11.9202 16.0813 11.9202C13.3321 11.9202 11.0954 9.65116 11.0954 6.86212C11.0954 4.87745 12.2479 3.06693 14.0315 2.24969C14.3433 2.10683 14.482 1.73451 14.3411 1.41818C14.2003 1.1018 13.8331 0.961201 13.5215 1.10406C11.2951 2.12424 9.85645 4.38439 9.85645 6.86206C9.85638 10.3443 12.6489 13.1772 16.0813 13.1772C19.5137 13.1772 22.3062 10.3443 22.3062 6.86212C22.3062 4.37157 20.857 2.10664 18.6144 1.09199Z" fill="#00B2FF"/>
<path d="M16.1031 0.546997H16.0809C15.7388 0.546997 15.4614 0.828377 15.4614 1.1755C15.4614 1.52262 15.7388 1.804 16.0809 1.804H16.0973C16.0983 1.804 16.0992 1.804 16.1003 1.804C16.4411 1.804 16.7181 1.52457 16.7197 1.17845C16.7213 0.831331 16.4453 0.548631 16.1031 0.546997Z" fill="#00B2FF"/>
<path d="M16.5189 29.1392C16.4037 29.0223 16.2439 28.9551 16.0809 28.9551C15.918 28.9551 15.7582 29.0223 15.6429 29.1392C15.5277 29.2561 15.4614 29.4183 15.4614 29.5836C15.4614 29.7489 15.5277 29.911 15.6429 30.0279C15.7582 30.1448 15.918 30.2121 16.0809 30.2121C16.2439 30.2121 16.4037 30.1448 16.5189 30.0279C16.6341 29.911 16.7005 29.7489 16.7005 29.5836C16.7005 29.4183 16.6342 29.2561 16.5189 29.1392Z" fill="#00B2FF"/>
</symbol><symbol id="icon-ok" viewBox="0 0 27 26">
<path d="M13.8512 10.957C14.8668 10.957 15.6568 10.1213 15.638 9.2113C15.6568 8.3013 14.8857 7.44702 13.87 7.44702C12.892 7.44702 12.0833 8.22702 12.0833 9.19273C12.0833 10.1584 12.8732 10.957 13.8512 10.957Z" fill="#CDCDCD"/>
<path d="M13.701 0C6.44113 0 0.5354 5.8314 0.5354 12.9999C0.5354 20.187 6.44113 25.9999 13.701 25.9999C20.9797 25.9999 26.8667 20.1685 26.8667 12.9999C26.8855 5.8314 20.9797 0 13.701 0ZM13.8891 4.9214C16.2589 4.9214 18.215 6.85282 18.1962 9.21138C18.1962 11.5885 16.2213 13.5014 13.8139 13.4642C11.4441 13.4271 9.54445 11.5142 9.54445 9.19281C9.54445 6.83425 11.4817 4.9214 13.8891 4.9214ZM18.7228 14.9499C18.7228 14.9871 18.704 15.0056 18.704 15.0428C18.6475 15.4142 18.4595 15.7114 18.1397 15.9156C17.9328 16.0456 17.7071 16.1756 17.4814 16.2871C16.9172 16.5656 16.3153 16.7885 15.6947 16.9371C15.6195 16.9556 15.6195 16.9556 15.6759 17.0113C16.0144 17.3456 16.3718 17.6985 16.7103 18.0328C17.1429 18.4599 17.5943 18.9056 18.0269 19.3328C18.6475 19.9456 18.4783 20.967 17.6883 21.3385C17.5567 21.4128 17.4062 21.4313 17.2558 21.4685C17.1805 21.4685 17.0865 21.4685 17.0112 21.4685C16.9924 21.4685 16.9736 21.4685 16.9736 21.4499C16.6727 21.4128 16.4282 21.2642 16.2025 21.0599C15.4502 20.317 14.679 19.5556 13.9267 18.8128C13.8703 18.7571 13.8703 18.7571 13.8139 18.8128C13.0427 19.5742 12.2904 20.317 11.5193 21.0785C11.3876 21.2085 11.256 21.3013 11.0867 21.3756C10.9739 21.4313 10.8422 21.4499 10.7294 21.4685C10.6541 21.4685 10.5789 21.4685 10.4849 21.4685C10.4472 21.4685 10.4284 21.4499 10.3908 21.4499C9.883 21.357 9.54445 21.0785 9.39399 20.5956C9.24352 20.1128 9.35637 19.6856 9.71373 19.3328C10.0335 19.017 10.3344 18.7199 10.6541 18.4042C11.1243 17.9399 11.5945 17.4756 12.0459 17.0299C12.1023 16.9742 12.1023 16.9742 12.0271 16.9556C12.0083 16.9556 11.9707 16.9371 11.9519 16.9371C11.1055 16.7328 10.3344 16.3985 9.60088 15.9528C9.16829 15.6742 8.9614 15.2656 9.01783 14.7642C9.11187 13.8356 10.1651 13.3342 10.9551 13.8356C11.1055 13.9285 11.2372 14.0028 11.4064 14.0771C12.2716 14.5042 13.1932 14.6899 14.1524 14.6342C14.6226 14.6156 15.0928 14.5228 15.563 14.3742C16.0144 14.2256 16.4094 14.0214 16.8232 13.7985C17.5003 13.4085 18.3842 13.7242 18.6475 14.4485C18.6852 14.5599 18.704 14.6528 18.7228 14.7642C18.7228 14.8199 18.7228 14.8756 18.7228 14.9499Z" fill="#CDCDCD"/>
</symbol><symbol id="icon-phone-call" viewBox="0 0 18 18">
<path d="M14.2333 11.1503C13.8642 10.7666 13.4191 10.5615 12.9473 10.5615C12.4794 10.5615 12.0304 10.7628 11.6462 11.1465L10.4439 12.3432C10.345 12.2901 10.2461 12.2407 10.151 12.1913C10.014 12.1229 9.88467 12.0583 9.77433 11.9899C8.64819 11.2757 7.62476 10.3449 6.64319 9.14066C6.16762 8.54041 5.84804 8.03514 5.61596 7.52227C5.92793 7.23735 6.21708 6.94102 6.49861 6.6561C6.60514 6.54972 6.71167 6.43955 6.8182 6.33318C7.61715 5.53538 7.61715 4.50205 6.8182 3.70425L5.77955 2.66712C5.66161 2.54935 5.53987 2.42778 5.42573 2.30621C5.19746 2.07067 4.95777 1.82754 4.71047 1.59959C4.34143 1.23489 3.9001 1.04114 3.43595 1.04114C2.97179 1.04114 2.52286 1.23489 2.1424 1.59959C2.1386 1.60339 2.1386 1.60339 2.13479 1.60719L0.841243 2.91026C0.35426 3.39653 0.076528 3.98918 0.0156552 4.6768C-0.0756541 5.78612 0.251537 6.81945 0.502638 7.49568C1.11898 9.15585 2.03968 10.6945 3.41312 12.3432C5.07952 14.3301 7.08452 15.8991 9.37486 17.0046C10.2499 17.4187 11.4179 17.9088 12.7229 17.9924C12.8028 17.9962 12.8865 18 12.9626 18C13.8414 18 14.5795 17.6847 15.1578 17.0578C15.1616 17.0502 15.1692 17.0464 15.173 17.0388C15.3708 16.7995 15.5991 16.5829 15.8388 16.3512C16.0024 16.1954 16.1698 16.0321 16.3334 15.8611C16.71 15.4698 16.9079 15.014 16.9079 14.5467C16.9079 14.0756 16.7062 13.6235 16.322 13.2436L14.2333 11.1503ZM15.5953 15.1507C15.5915 15.1507 15.5915 15.1545 15.5953 15.1507C15.4469 15.3103 15.2947 15.4546 15.1311 15.6142C14.8838 15.8497 14.6327 16.0967 14.3969 16.374C14.0126 16.7843 13.5599 16.978 12.9664 16.978C12.9093 16.978 12.8484 16.978 12.7913 16.9742C11.6614 16.9021 10.6113 16.4614 9.82379 16.0853C7.67042 15.0443 5.77955 13.5665 4.20827 11.6936C2.91092 10.1322 2.04348 8.68857 1.46899 7.13857C1.11517 6.19262 0.985816 5.4556 1.04288 4.76038C1.08093 4.3159 1.25214 3.94739 1.56791 3.63207L2.86527 2.33661C3.05169 2.16185 3.24953 2.06687 3.44356 2.06687C3.68324 2.06687 3.87728 2.21124 3.99902 2.33281C4.00283 2.33661 4.00663 2.3404 4.01044 2.3442C4.24251 2.56075 4.46318 2.78489 4.69526 3.02423C4.8132 3.1458 4.93494 3.26737 5.05669 3.39273L6.09533 4.42987C6.49861 4.83256 6.49861 5.20487 6.09533 5.60757C5.985 5.71774 5.87847 5.82791 5.76814 5.93428C5.44856 6.261 5.14419 6.56492 4.8132 6.86124C4.80559 6.86884 4.79798 6.87264 4.79417 6.88024C4.46698 7.20696 4.52786 7.52607 4.59634 7.74262C4.60014 7.75401 4.60395 7.76541 4.60775 7.77681C4.87787 8.43024 5.25833 9.04568 5.83662 9.7789L5.84043 9.78269C6.89048 11.0744 7.99761 12.0811 9.21887 12.8523C9.37486 12.9511 9.53465 13.0309 9.68683 13.1068C9.82379 13.1752 9.95315 13.2398 10.0635 13.3082C10.0787 13.3158 10.0939 13.3272 10.1091 13.3348C10.2385 13.3994 10.3602 13.4298 10.4858 13.4298C10.8016 13.4298 10.9994 13.2322 11.0641 13.1676L12.3652 11.8684C12.4946 11.7392 12.7 11.5834 12.9397 11.5834C13.1756 11.5834 13.3696 11.7316 13.4876 11.8608C13.4914 11.8646 13.4914 11.8646 13.4952 11.8684L15.5915 13.9616C15.9834 14.3491 15.9834 14.748 15.5953 15.1507Z" fill="#00B2FF"/>
<path d="M9.72843 4.28169C10.7252 4.44885 11.6307 4.91992 12.3536 5.64174C13.0764 6.36355 13.5444 7.26772 13.7156 8.26307C13.7575 8.5138 13.9743 8.68856 14.2216 8.68856C14.252 8.68856 14.2787 8.68476 14.3091 8.68096C14.5907 8.63537 14.7771 8.36944 14.7314 8.08831C14.526 6.88402 13.9553 5.7861 13.0841 4.91613C12.2128 4.04615 11.1133 3.4763 9.90725 3.27115C9.62571 3.22556 9.3632 3.41171 9.31374 3.68904C9.26428 3.96637 9.4469 4.2361 9.72843 4.28169Z" fill="#00B2FF"/>
<path d="M17.9921 7.94018C17.6535 5.95709 16.7176 4.15255 15.2795 2.71652C13.8414 1.28049 12.0342 0.345932 10.0482 0.00781895C9.77051 -0.0415684 9.50799 0.148383 9.45853 0.425712C9.41288 0.70684 9.5993 0.968972 9.88084 1.01836C11.6538 1.31848 13.2707 2.15807 14.5566 3.43834C15.8426 4.72241 16.6796 6.33699 16.9801 8.10734C17.022 8.35808 17.2388 8.53283 17.4861 8.53283C17.5166 8.53283 17.5432 8.52903 17.5736 8.52523C17.8514 8.48344 18.0416 8.21751 17.9921 7.94018Z" fill="#00B2FF"/>
</symbol><symbol id="icon-rectangles-figure" viewBox="0 0 671 641">
<path d="M626.842 159.584L352.167 635.334L77.4923 159.584L626.842 159.584Z" fill="none" stroke="white"/>
<path d="M347.148 357.75L186.5 636L25.8523 357.75L347.148 357.75Z" fill="none" stroke="white"/>
<circle cx="77" cy="159" r="5" fill="white"/>
<circle cx="26" cy="358" r="5" fill="white"/>
<circle cx="187" cy="636" r="5" fill="white"/>
<circle cx="352" cy="635" r="5" fill="white"/>
<circle cx="627" cy="159" r="5" fill="white"/>
</symbol><symbol id="icon-stopwatch" viewBox="0 0 30 37">
<path d="M3.84612 12.3638L2.34001 10.8724C1.52177 10.0626 1.52177 8.74442 2.34001 7.93407C3.15825 7.12399 4.48973 7.12399 5.30797 7.93407L6.91603 9.5261C8.5935 8.36942 10.5057 7.5688 12.5092 7.1846V5.11853H11.11C10.7235 5.11853 10.4104 4.80846 10.4104 4.42587V2.62497C10.4104 1.47911 11.3518 0.546997 12.5092 0.546997H18.1063C19.2637 0.546997 20.2052 1.47911 20.2052 2.62497V4.42587C20.2052 4.80846 19.892 5.11853 19.5055 5.11853H18.1063V7.1846C20.1095 7.56853 22.022 8.36942 23.6995 9.5261L25.3076 7.93407C26.1255 7.12399 27.457 7.12399 28.2755 7.93407C29.0938 8.74415 29.0938 10.0624 28.2755 10.8724L26.7694 12.3638C28.8571 14.9383 30 18.1451 30 21.4652C30 29.4857 23.409 36.011 15.3078 36.011C7.20654 36.011 0.615528 29.4857 0.615528 21.4652C0.615528 18.1451 1.75844 14.9383 3.84612 12.3638ZM4.31865 8.91353C4.04563 8.6435 3.60207 8.64377 3.32933 8.91353C3.05685 9.18356 3.05685 9.62296 3.32933 9.89299L4.77505 11.324C5.10081 10.9929 5.44243 10.6771 5.79771 10.3781L4.31865 8.91353ZM18.8059 2.62497C18.8059 2.24292 18.4922 1.93231 18.1063 1.93231H12.5092C12.1234 1.93231 11.8096 2.24292 11.8096 2.62497V3.73322H18.8059V2.62497ZM13.9085 5.11853V6.98492C14.8358 6.89887 15.7795 6.89887 16.707 6.98492V5.11853H13.9085ZM27.2862 8.91353C27.0135 8.64377 26.5696 8.6435 26.2969 8.91353L24.8178 10.3781C25.1731 10.6771 25.5147 10.9929 25.8405 11.324L27.2862 9.89299C27.5587 9.62296 27.5587 9.18356 27.2862 8.91353ZM15.3078 34.6257C22.6375 34.6257 28.6007 28.7219 28.6007 21.4652C28.6007 18.2641 27.4269 15.1799 25.2958 12.7802C24.7088 12.1192 24.0537 11.5153 23.3489 10.9845C21.5826 9.65381 19.4919 8.77798 17.3028 8.4514C16.6477 8.35426 15.9765 8.30475 15.3078 8.30475C14.639 8.30475 13.9678 8.35426 13.313 8.4514C11.1236 8.77798 9.03296 9.65381 7.26639 10.9845C6.56184 11.5153 5.90676 12.1192 5.31972 12.7802C3.18858 15.1799 2.01479 18.2641 2.01479 21.4652C2.01479 28.7219 7.97804 34.6257 15.3078 34.6257Z" fill="#00B2FF"/>
<path d="M15.3074 23.5431C14.15 23.5431 13.2085 22.611 13.2085 21.4652C13.2085 20.5623 13.7933 19.7922 14.6077 19.5062V14.5386C14.6077 14.156 14.9209 13.8459 15.3074 13.8459C15.6938 13.8459 16.007 14.156 16.007 14.5386V19.5062C16.8214 19.7922 17.4062 20.5623 17.4062 21.4652C17.4062 22.611 16.4648 23.5431 15.3074 23.5431ZM15.3074 20.7725C14.9215 20.7725 14.6077 21.0831 14.6077 21.4652C14.6077 21.8472 14.9215 22.1578 15.3074 22.1578C15.6932 22.1578 16.007 21.8472 16.007 21.4652C16.007 21.0831 15.6932 20.7725 15.3074 20.7725Z" fill="#00B2FF"/>
<path d="M7.85482 14.1576C7.86575 14.1449 7.87668 14.1322 7.88898 14.1203C7.9021 14.107 7.91603 14.0951 7.92997 14.0832C9.16307 12.8754 10.6864 11.9817 12.3396 11.4985C12.7104 11.3902 13.0993 11.5997 13.2086 11.9666C13.3179 12.3335 13.1064 12.7187 12.7358 12.827C11.5109 13.1852 10.3683 13.8043 9.39428 14.6309L9.86625 15.0981C10.1393 15.3687 10.1393 15.8073 9.86625 16.0779C9.72961 16.2131 9.5506 16.2808 9.37132 16.2808C9.19231 16.2808 9.01331 16.2131 8.87666 16.0779L8.40359 15.6095C7.1377 17.0668 6.38587 18.8607 6.23938 20.7725H6.91223C7.29866 20.7725 7.61186 21.0828 7.61186 21.4652C7.61186 21.8477 7.29866 22.1578 6.91223 22.1578H6.23938C6.38587 24.0699 7.1377 25.8635 8.40359 27.3208L8.87666 26.8525C9.14995 26.5822 9.59296 26.5822 9.86625 26.8525C10.1395 27.123 10.1395 27.5616 9.86625 27.8322L9.39318 28.3005C10.8651 29.5538 12.6771 30.2981 14.6082 30.4434V29.777C14.6082 29.3944 14.9214 29.0844 15.3078 29.0844C15.6942 29.0844 16.0074 29.3944 16.0074 29.777V30.4432C17.9385 30.2981 19.7504 29.5538 21.2224 28.3005L20.7493 27.8322C20.476 27.5616 20.476 27.123 20.7493 26.8525C21.0226 26.5822 21.4656 26.5822 21.7389 26.8525L22.212 27.3208C23.4779 25.8635 24.2297 24.0696 24.3762 22.1578H23.7034C23.3169 22.1578 23.0037 21.8477 23.0037 21.4652C23.0037 21.0826 23.3169 20.7725 23.7034 20.7725H24.3762C24.2297 18.8607 23.4779 17.0668 22.212 15.6095L21.7389 16.0779C21.6023 16.2131 21.4233 16.2808 21.2443 16.2808C21.065 16.2808 20.886 16.2131 20.7493 16.0779C20.4763 15.8073 20.4763 15.3687 20.7493 15.0981L21.2213 14.6309C20.2473 13.804 19.1047 13.1852 17.8798 12.827C17.5092 12.7187 17.2976 12.3335 17.407 11.9666C17.5163 11.5997 17.9049 11.3905 18.276 11.4985C19.9289 11.9814 21.4517 12.8749 22.6845 14.0821C22.699 14.0943 22.7132 14.1068 22.7266 14.12C22.7386 14.1319 22.7493 14.1444 22.7602 14.1568C24.7222 16.1174 25.8022 18.7105 25.8022 21.4652C25.8022 24.2195 24.7222 26.8124 22.7608 28.7727C22.7498 28.7854 22.7389 28.7981 22.7266 28.81C22.7146 28.8222 22.702 28.8327 22.6894 28.8436C20.7092 30.7857 18.0902 31.855 15.3078 31.855C12.5257 31.855 9.9067 30.786 7.92669 28.8441C7.91385 28.833 7.901 28.8222 7.88898 28.81C7.87695 28.7984 7.86629 28.7857 7.85536 28.7735C5.89339 26.8129 4.81334 24.2198 4.81334 21.4652C4.81334 18.7108 5.89339 16.1179 7.85482 14.1576Z" fill="#00B2FF"/>
<path d="M15.3077 12.4606C14.9215 12.4606 14.6081 12.1503 14.6081 11.768C14.6081 11.3857 14.9215 11.0753 15.3077 11.0753C15.6939 11.0753 16.0073 11.3857 16.0073 11.768C16.0073 12.1503 15.6939 12.4606 15.3077 12.4606Z" fill="#00B2FF"/>
</symbol><symbol id="icon-tag" viewBox="0 0 33 33">
<path d="M10.7945 8.43992C10.6776 8.323 10.5155 8.25574 10.3502 8.25574C10.1849 8.25574 10.0227 8.323 9.90583 8.43992C9.78899 8.55684 9.72168 8.71902 9.72168 8.88434C9.72168 9.04966 9.78893 9.21185 9.90583 9.32877C10.0227 9.44575 10.1849 9.51295 10.3502 9.51295C10.5155 9.51295 10.6776 9.44569 10.7945 9.32877C10.9114 9.21185 10.9787 9.04966 10.9787 8.88434C10.9787 8.71902 10.9114 8.55684 10.7945 8.43992Z" fill="#00B2FF"/>
<path d="M32.6111 3.1753L31.8339 2.39715L32.6108 1.62013C32.8563 1.37466 32.8563 0.976632 32.6108 0.7311C32.3653 0.48563 31.9675 0.48563 31.7219 0.7311L30.9455 1.50761L30.1798 0.740843C30.0619 0.622917 29.9021 0.556536 29.7355 0.556473L19.0977 0.550564C19.0971 0.550564 19.0965 0.550564 19.0959 0.550564C18.2559 0.550564 17.4662 0.87769 16.8722 1.47178L11.5638 6.78098C11.3184 7.02645 11.3184 7.42448 11.5638 7.67001C11.8093 7.91548 12.2071 7.91548 12.4527 7.67001L17.7611 2.36082C18.1177 2.00415 18.5917 1.80784 19.0959 1.80784C19.0963 1.80784 19.0967 1.80784 19.097 1.80784L29.4744 1.81362L30.0568 2.39671L27.7247 4.72909C26.7358 4.13669 25.4321 4.26587 24.5809 5.11712C24.0946 5.60354 23.8268 6.25018 23.8268 6.938C23.8268 7.62582 24.0946 8.27247 24.5809 8.75888C25.0828 9.26088 25.7422 9.51189 26.4015 9.51189C27.0608 9.51189 27.7201 9.26088 28.2221 8.75888C29.072 7.90882 29.202 6.60748 28.6128 5.61894L30.9452 3.28625L31.5378 3.87972L31.5321 14.2446C31.5317 14.7485 31.3354 15.2223 30.9791 15.5786L15.642 30.9179C15.2855 31.2745 14.8114 31.4709 14.3072 31.4709C13.803 31.4709 13.3289 31.2745 12.9724 30.9179L2.42522 20.3691C2.0686 20.0125 1.87225 19.5383 1.87225 19.034C1.87225 18.5298 2.0686 18.0556 2.42522 17.699L9.20017 10.923C9.4456 10.6776 9.4456 10.2795 9.20017 10.034C8.95468 9.78853 8.55683 9.78853 8.31127 10.034L1.53632 16.81C0.942374 17.404 0.615234 18.1939 0.615234 19.034C0.615234 19.8742 0.942374 20.6641 1.53632 21.2581L12.0835 31.8069C12.6966 32.4201 13.5018 32.7267 14.3072 32.7267C15.1126 32.7267 15.9178 32.4201 16.5309 31.8069L31.8679 16.4675C32.4614 15.8739 32.7885 15.0847 32.789 14.2451L32.7949 3.61985C32.795 3.45315 32.7289 3.29323 32.6111 3.1753ZM27.3332 7.86978C27.0843 8.11871 26.7534 8.25581 26.4015 8.25581C26.0495 8.25581 25.7187 8.11871 25.4698 7.86978C24.956 7.35596 24.956 6.51985 25.4698 6.00603C25.7267 5.74906 26.064 5.62064 26.4015 5.62064C26.5286 5.62064 26.6556 5.63893 26.7785 5.67539L26.053 6.40092C25.8076 6.64639 25.8076 7.04442 26.053 7.28996C26.1758 7.41272 26.3366 7.47408 26.4974 7.47408C26.6583 7.47408 26.8191 7.41272 26.9419 7.28996L27.6653 6.56643C27.7959 7.01394 27.6854 7.51757 27.3332 7.86978Z" fill="#00B2FF"/>
<path d="M27.4632 13.2023L20.1386 5.87659C19.1683 4.90615 17.5895 4.90627 16.6193 5.87659L5.02826 17.4694C4.5582 17.9395 4.29932 18.5645 4.29932 19.2293C4.29932 19.8941 4.55814 20.5192 5.0282 20.9893L12.3528 28.3149C12.8229 28.7851 13.4478 29.044 14.1125 29.044C14.7772 29.044 15.4022 28.7851 15.8721 28.315L27.4632 16.7221C27.9333 16.252 28.1921 15.6271 28.1921 14.9622C28.1921 14.2974 27.9333 13.6724 27.4632 13.2023ZM26.5743 15.8331L14.9833 27.4261C14.7507 27.6587 14.4414 27.7868 14.1125 27.7868C13.7837 27.7868 13.4744 27.6587 13.2418 27.426L5.9171 20.1003C5.68449 19.8677 5.5564 19.5584 5.5564 19.2294C5.55634 18.9004 5.68449 18.5911 5.9171 18.3585L17.5082 6.76562C17.7483 6.52549 18.0636 6.40543 18.379 6.40543C18.6943 6.40543 19.0097 6.52556 19.2497 6.76562L26.5743 14.0913C26.8069 14.324 26.935 14.6332 26.935 14.9622C26.935 15.2912 26.8069 15.6005 26.5743 15.8331Z" fill="#00B2FF"/>
<path d="M21.1098 13.1218C21.3553 12.8764 21.3553 12.4783 21.1098 12.2328C20.8643 11.9873 20.4665 11.9873 20.2209 12.2328L19.859 12.5948C18.8927 11.9978 17.6528 12.0779 16.869 12.8617C16.412 13.3188 16.1782 13.9395 16.2106 14.6094C16.242 15.2563 16.5205 15.8739 16.9949 16.3483C16.9949 16.3484 16.995 16.3484 16.995 16.3485C17.5005 16.8543 17.5569 17.6207 17.1208 18.057C16.6844 18.4933 15.918 18.4368 15.4123 17.9311C14.9066 17.4253 14.8501 16.6587 15.2864 16.2224C15.5318 15.9769 15.5318 15.5789 15.2864 15.3333C15.0409 15.0879 14.643 15.0879 14.3975 15.3333C13.6137 16.1172 13.5337 17.3573 14.1306 18.3239L13.7012 18.7533C13.4557 18.9987 13.4557 19.3968 13.7012 19.6423C13.8242 19.7652 13.9851 19.8265 14.1459 19.8265C14.3068 19.8265 14.4676 19.7651 14.5903 19.6424L15.02 19.2127C15.4422 19.4735 15.9165 19.6056 16.3823 19.6056C16.9825 19.6056 17.5684 19.3873 18.0097 18.946C18.9359 18.0196 18.8796 16.456 17.8843 15.4599C17.8841 15.4597 17.884 15.4596 17.8838 15.4594C17.6308 15.2063 17.4825 14.8829 17.4662 14.5485C17.4512 14.2372 17.5547 13.9539 17.7579 13.7508C18.1941 13.3144 18.9604 13.3709 19.4662 13.8765C19.4662 13.8765 19.4662 13.8766 19.4663 13.8767C19.4664 13.8767 19.4664 13.8767 19.4664 13.8767C19.972 14.3826 20.0284 15.149 19.5921 15.5853C19.3467 15.8308 19.3467 16.2288 19.5921 16.4743C19.7149 16.5971 19.8757 16.6584 20.0365 16.6584C20.1974 16.6584 20.3582 16.5971 20.481 16.4743C21.2647 15.6904 21.3448 14.4503 20.7479 13.4838L21.1098 13.1218Z" fill="#00B2FF"/>
<path d="M14.7493 23.5431L11.5212 20.3145C11.2758 20.0692 10.8779 20.0691 10.6323 20.3145C10.3869 20.56 10.3869 20.958 10.6323 21.2035L13.8605 24.4322C13.9832 24.5549 14.1441 24.6163 14.3049 24.6163C14.4657 24.6163 14.6266 24.5549 14.7493 24.4322C14.9947 24.1867 14.9947 23.7887 14.7493 23.5431Z" fill="#00B2FF"/>
<path d="M9.79888 18.5923C9.68204 18.4755 9.52045 18.4081 9.35458 18.4081C9.18929 18.4081 9.02776 18.4754 8.91023 18.5923C8.79333 18.7092 8.72607 18.8714 8.72607 19.0374C8.72607 19.2027 8.79326 19.3649 8.91023 19.4818C9.02713 19.5987 9.18929 19.666 9.35458 19.666C9.52051 19.666 9.68204 19.5987 9.79888 19.4818C9.91641 19.3643 9.98366 19.2027 9.98366 19.0374C9.98366 18.8714 9.91641 18.7099 9.79888 18.5923Z" fill="#00B2FF"/>
</symbol><symbol id="icon-vk" viewBox="0 0 27 26">
<path d="M19.475 15.1271C18.3662 14.1029 18.287 14.1029 19.2374 12.9211C20.4254 11.4243 22.0095 9.53349 20.5838 9.53349H17.9701C17.4949 9.53349 17.4157 9.84862 17.2573 10.2425C16.6237 11.7394 15.3565 13.709 14.8812 13.3938C14.406 13.0787 14.6436 11.897 14.6436 10.0062C14.7228 9.76984 14.6436 9.53349 14.4852 9.37592C14.3268 9.21836 14.0892 9.06079 13.8516 9.06079C13.4556 8.98201 13.0596 8.90323 12.6636 8.90323C11.1587 8.90323 10.1291 9.53349 10.6835 9.61227C11.7131 9.76984 11.6339 11.9758 11.3963 12.9211C11.0003 14.5756 9.41624 11.6606 8.70342 10.1638C8.62421 9.76984 8.3074 9.53349 7.91139 9.53349H5.85212C5.53531 9.53349 5.2977 9.61227 5.2977 9.84862C5.2977 10.2425 7.27777 14.1029 9.09943 16.0725C10.9211 17.9632 12.7428 17.8057 14.01 17.8057C14.1684 17.8057 14.3268 17.7269 14.406 17.6481C14.4852 17.5693 14.5644 17.4118 14.5644 17.2542C14.5644 15.9937 15.0396 15.3634 15.9109 16.23C16.8613 17.1754 17.0989 17.8057 18.287 17.8057H20.4254C20.9799 17.8057 21.1383 17.6481 21.1383 17.4118C21.2175 16.8603 20.267 15.8361 19.475 15.1271ZM13.8516 0.000789162C21.2175 0.158354 27.0785 6.06705 26.9993 13.2363C26.9201 20.4055 20.8214 26.0778 13.4556 25.9991C6.01052 25.9203 0.0703125 20.1691 0.0703125 12.9999C0.149515 5.75192 6.32733 -0.0779935 13.8516 0.000789162Z" fill="#CDCDCD"/>
</symbol></svg>